<?xml version="1.0" standalone="no"?>
<!DOCTYPE svg PUBLIC "-//W3C//DTD SVG 20010904//EN"
 "http://www.w3.org/TR/2001/REC-SVG-20010904/DTD/svg10.dtd">
<svg version="1.0" xmlns="http://www.w3.org/2000/svg"
 width="300.000000pt" height="246.000000pt" viewBox="0 0 300.000000 246.000000"
 preserveAspectRatio="xMidYMid meet">
<metadata>
Created by potrace 1.10, written by Peter Selinger 2001-2011
</metadata>
<g transform="translate(0.000000,246.000000) scale(0.100000,-0.100000)"
fill="#ffffff" stroke="none">
<path d="M1430 2263 c-63 -7 -152 -12 -198 -9 -79 5 -83 4 -99 -20 -13 -21
-14 -29 -3 -49 17 -31 35 -38 74 -25 17 5 114 17 216 25 l185 15 100 -31 c55
-17 104 -35 110 -40 5 -5 -70 -9 -189 -9 l-197 0 -84 -80 -84 -80 -85 0 c-47
0 -97 5 -110 12 -22 9 -29 8 -46 -7 -24 -22 -26 -67 -4 -86 12 -10 22 -10 48
-1 18 7 74 12 126 12 l93 0 82 75 83 75 254 0 255 0 36 -37 c28 -27 37 -45 37
-70 0 -19 -5 -33 -12 -34 -46 -4 -78 8 -129 46 l-56 44 -169 4 c-93 2 -181 7
-195 11 -33 10 -59 -14 -59 -53 0 -38 22 -55 62 -47 18 3 101 6 185 7 l152 1
62 -48 c49 -38 71 -48 110 -52 46 -4 49 -6 49 -32 0 -15 -11 -53 -25 -84 l-25
-57 -136 -65 -136 -64 -134 0 c-122 0 -140 2 -196 26 -34 14 -80 29 -102 34
-31 6 -12 8 78 9 70 1 133 -4 152 -11 29 -10 36 -9 54 7 23 21 26 53 7 79 -11
15 -20 17 -48 11 -56 -13 -431 -17 -443 -5 -26 26 -76 -2 -76 -44 0 -13 9 -31
20 -41 17 -15 24 -16 46 -7 28 14 114 16 114 4 0 -4 -5 -13 -11 -19 -17 -17
-2 -62 25 -74 18 -9 29 -8 47 4 22 14 29 14 74 -2 28 -10 64 -25 82 -34 26
-14 62 -17 183 -17 l150 0 91 46 c50 25 102 49 115 54 l24 10 0 -123 0 -122
-121 -44 c-113 -41 -125 -47 -177 -102 l-55 -58 -28 38 c-23 31 -48 46 -138
84 -122 52 -174 59 -191 26 -14 -26 3 -49 36 -49 30 0 104 -29 104 -41 0 -13
-41 -21 -95 -17 l-48 3 -58 105 c-32 58 -64 108 -71 111 -61 31 -68 32 -93 21
-31 -14 -34 -61 -5 -87 17 -15 24 -16 45 -7 24 11 26 8 74 -81 77 -144 69
-137 161 -137 47 0 80 -4 80 -10 0 -5 -25 -10 -57 -10 -54 0 -58 -2 -98 -46
l-42 -46 -6 31 c-5 25 -13 33 -37 37 l-30 7 0 77 c0 85 -3 90 -64 110 -37 12
-41 11 -58 -10 -10 -12 -18 -28 -18 -34 0 -22 42 -58 61 -53 17 4 19 -3 21
-82 l3 -86 43 -19 c51 -24 55 -39 7 -30 -27 5 -41 2 -55 -11 -26 -24 -25 -41
4 -70 24 -24 26 -24 63 -9 21 9 59 38 86 66 43 48 47 49 47 26 0 -35 33 -63
62 -53 13 4 65 11 116 14 l92 6 0 -40 c0 -39 0 -39 -16 -16 -14 19 -22 22 -48
16 -17 -4 -60 -9 -96 -12 -56 -4 -71 -10 -110 -41 -81 -66 -75 -64 -104 -51
-22 10 -29 9 -46 -6 -24 -21 -26 -67 -5 -85 14 -12 14 -15 0 -30 -19 -21 -19
-64 -1 -79 10 -8 31 -10 63 -5 67 10 81 16 138 63 49 41 50 41 131 41 l82 0
16 -40 c9 -22 16 -45 16 -51 0 -11 -57 -8 -113 6 -20 5 -33 3 -47 -10 -24 -22
-25 -43 -4 -73 15 -21 64 -31 64 -13 0 5 8 8 18 6 9 -2 25 -4 35 -4 14 -1 16
-5 7 -20 -14 -27 -13 -66 3 -80 20 -16 181 2 247 28 57 23 68 35 113 115 45
81 35 95 -52 76 -31 -6 -68 -10 -82 -8 -23 3 -23 4 11 22 45 25 59 44 60 83
l0 31 40 -15 c32 -13 43 -24 56 -59 18 -48 15 -68 -20 -147 -20 -46 -36 -62
-117 -120 l-94 -67 -91 0 -91 0 -101 102 -101 103 -123 6 c-68 3 -128 4 -134
2 -6 -2 -17 -15 -24 -28 -11 -20 -10 -28 4 -50 9 -14 26 -25 37 -25 17 0 18
-3 8 -21 -16 -30 18 -76 52 -70 44 6 134 5 156 -3 16 -6 27 -2 44 18 l23 26
65 -70 66 -70 116 0 115 0 113 82 114 83 48 120 c27 66 49 125 49 131 0 5 13
23 30 39 19 19 38 55 56 109 15 45 35 90 44 101 33 36 39 90 33 264 -5 154 -4
175 21 289 18 86 26 152 26 222 l0 101 -63 132 c-56 116 -74 143 -146 219
l-82 87 -154 51 c-166 54 -171 55 -345 33z m344 -63 l149 -49 76 -82 c63 -69
86 -103 133 -203 l58 -121 0 -112 c0 -81 -7 -142 -25 -227 -27 -124 -32 -247
-15 -349 11 -69 -4 -154 -30 -177 -10 -8 -30 -51 -44 -96 -18 -53 -37 -90 -56
-109 -17 -16 -36 -50 -44 -79 -9 -28 -31 -87 -49 -131 l-34 -80 -107 -77 -108
-78 -108 0 -109 0 -98 105 -98 105 -93 0 c-69 0 -97 -4 -108 -15 -16 -16 -40
-11 -48 10 -8 23 22 47 44 35 10 -6 63 -10 117 -10 l98 0 98 -105 98 -105 99
0 99 0 102 72 c89 63 105 79 124 123 50 113 50 117 25 180 -21 52 -28 59 -72
78 -26 11 -48 24 -48 28 0 13 9 11 66 -12 46 -19 53 -26 69 -72 l19 -51 9 29
c5 17 23 44 39 62 29 30 85 168 64 155 -6 -3 -40 -27 -76 -52 l-65 -46 -47 15
c-54 16 -66 38 -15 26 58 -13 66 -11 160 54 90 62 94 66 104 113 6 31 6 69 0
109 l-10 60 -41 -39 c-23 -22 -48 -42 -56 -44 -10 -3 -5 -10 17 -21 l31 -17
-26 -60 c-15 -33 -30 -60 -34 -60 -12 0 -9 22 7 50 25 44 16 43 -37 -4 -48
-42 -57 -46 -103 -46 -62 0 -130 39 -120 70 6 18 4 18 -35 3 -22 -9 -40 -19
-40 -23 0 -19 62 -60 114 -75 34 -9 55 -20 50 -25 -17 -17 -117 19 -146 53
l-28 31 0 -82 c0 -48 -4 -82 -10 -82 -6 0 -10 38 -11 93 -1 108 -16 161 -47
165 -13 2 -22 11 -22 20 0 10 -12 34 -26 55 -20 30 -46 48 -121 83 -62 29
-109 44 -135 44 -27 0 -38 4 -36 13 9 26 59 17 168 -32 117 -52 126 -60 160
-126 11 -22 20 -33 20 -25 0 8 26 43 58 78 52 58 65 66 152 97 52 19 114 42
138 51 l42 16 0 154 c0 85 -2 154 -4 154 -2 0 -65 -29 -141 -65 l-137 -65
-143 0 c-138 0 -146 1 -210 30 -72 32 -104 37 -134 18 -24 -15 -51 -4 -51 21
0 22 29 36 44 21 5 -5 27 -10 47 -10 20 0 67 -13 104 -30 64 -29 74 -30 201
-30 l134 0 144 67 144 68 31 72 c19 45 31 89 31 117 l0 45 -54 -6 c-52 -5 -55
-4 -121 46 l-68 51 -166 0 c-102 0 -171 -4 -177 -10 -15 -15 -44 -2 -44 19 0
28 20 42 43 30 11 -7 84 -10 179 -9 l159 1 68 -51 c63 -46 73 -50 125 -50 l56
0 0 52 c0 49 -3 55 -47 100 l-47 48 -262 0 -261 0 -85 -79 -85 -80 -104 -3
c-57 -2 -112 -7 -121 -12 -12 -5 -20 -2 -27 13 -15 27 12 56 39 41 10 -6 62
-10 115 -10 l96 0 83 76 83 75 251 -1 c317 -1 325 8 74 92 l-147 49 -170 -16
c-93 -8 -187 -15 -207 -15 -21 0 -38 -4 -38 -10 0 -5 -11 -10 -24 -10 -29 0
-42 28 -22 49 13 12 19 13 40 1 21 -11 50 -10 178 2 238 24 236 24 402 -32z
m-709 -560 c9 -15 438 -13 453 2 16 16 47 -13 39 -36 -7 -18 -42 -22 -52 -6
-4 6 -88 10 -221 10 -136 0 -214 -4 -214 -10 0 -15 -48 -12 -53 3 -11 30 32
63 48 37z m3 -289 c9 -5 24 -12 32 -14 9 -3 43 -55 75 -116 l60 -111 76 0 c41
0 80 5 85 10 15 15 44 1 44 -21 0 -25 -27 -36 -51 -21 -10 7 -52 12 -93 12
l-75 0 -62 115 c-34 63 -68 115 -76 115 -7 0 -13 -4 -13 -10 0 -15 -36 -12
-50 5 -10 12 -10 18 0 30 14 17 24 19 48 6z m-23 -161 c3 -5 15 -10 26 -10 18
0 19 -8 19 -100 0 -55 2 -100 5 -100 3 0 14 6 26 13 17 10 22 9 34 -7 11 -14
12 -23 4 -33 -13 -15 -49 -18 -49 -3 0 6 -9 10 -20 10 -19 0 -20 7 -20 100 0
91 -8 118 -25 90 -10 -15 -45 -12 -51 5 -12 29 35 61 51 35z m469 -98 c14 -16
31 -46 37 -66 7 -24 18 -40 33 -46 32 -12 36 -28 36 -134 0 -80 3 -95 20 -111
17 -16 18 -20 5 -45 -8 -15 -17 -47 -21 -69 -4 -24 -11 -40 -18 -38 -8 3 -10
58 -8 184 3 140 1 182 -10 190 -9 8 -29 6 -73 -8 -64 -20 -180 -26 -190 -9 -3
6 -16 10 -28 10 -13 0 -17 4 -11 9 5 6 42 6 94 0 76 -9 86 -8 97 8 18 24 16
57 -5 76 -13 12 -17 26 -14 47 5 38 21 38 56 2z m586 -96 c0 -46 -5 -69 -16
-81 -25 -25 -29 -10 -9 40 13 36 14 49 5 60 -10 12 -10 18 0 30 7 8 14 15 16
15 2 0 4 -29 4 -64z m-632 8 c3 -24 -25 -41 -42 -24 -5 5 -42 10 -80 10 l-71
-1 -64 -74 c-36 -41 -71 -75 -78 -75 -7 0 -22 -6 -33 -12 -16 -10 -23 -10 -37
5 -16 16 -16 18 0 34 14 15 21 15 37 5 11 -6 23 -12 27 -12 5 0 39 36 78 80
l69 81 68 -4 c38 -3 71 0 74 5 11 17 49 4 52 -18z m112 -81 c0 -10 -5 -81 -11
-158 -8 -108 -8 -149 2 -177 17 -52 48 -51 105 2 24 22 50 40 59 40 11 0 15
11 15 45 0 33 -4 45 -15 45 -21 0 -65 -70 -65 -102 0 -16 -4 -28 -10 -28 -19
0 -10 66 15 102 14 21 29 48 35 62 10 28 57 63 68 52 4 -4 -5 -17 -21 -28 -32
-23 -35 -38 -7 -38 18 0 20 -7 20 -60 0 -58 -1 -60 -32 -74 -18 -7 -46 -28
-62 -45 -17 -17 -36 -31 -43 -31 -7 0 -13 -8 -13 -17 0 -13 3 -14 12 -5 7 7
40 12 78 12 37 0 89 7 116 15 62 19 61 19 37 -7 -11 -13 -30 -42 -41 -64 -27
-54 -105 -88 -192 -85 -32 1 -61 -3 -65 -9 -10 -16 -45 -12 -52 6 -8 23 23 52
39 36 22 -22 132 -15 193 12 67 30 73 49 8 30 -25 -8 -70 -14 -100 -14 -44 0
-53 3 -53 18 0 16 -9 18 -81 16 -44 -1 -86 -7 -91 -12 -14 -14 -48 3 -48 22 0
22 29 41 42 28 7 -7 45 -12 95 -12 67 0 83 3 83 15 0 8 -6 15 -13 15 -16 0
-47 62 -47 95 0 25 0 25 -101 25 l-101 0 -57 -50 c-43 -38 -66 -50 -89 -50
-18 0 -41 -6 -53 -12 -17 -11 -22 -10 -34 6 -11 14 -12 23 -4 33 13 15 49 18
49 3 0 -5 14 -10 31 -10 23 0 47 14 91 50 l60 50 103 0 103 0 6 63 c12 139 14
177 12 177 -2 0 -23 -7 -47 -16 -27 -9 -71 -14 -112 -13 -37 1 -70 -1 -74 -4
-3 -4 -17 -7 -30 -7 -18 0 -23 6 -23 24 0 26 27 43 44 26 14 -14 174 -11 216
5 47 18 50 18 50 -2z m417 -59 c2 -6 -15 -23 -37 -38 -45 -29 -85 -28 -93 5
-4 16 0 19 27 19 18 0 41 7 52 15 21 16 45 16 51 -1z m-281 -35 c3 -6 2 -15
-4 -21 -6 -6 -11 -2 -15 11 -5 22 7 29 19 10z m-242 -25 c20 -8 21 -50 1 -58
-8 -3 -21 1 -29 9 -9 10 -35 15 -71 15 -53 0 -60 -3 -124 -55 -38 -30 -75 -55
-83 -55 -8 0 -19 -5 -24 -10 -13 -13 -40 -4 -48 15 -3 8 2 21 11 30 14 14 17
14 40 0 24 -16 26 -15 93 39 68 55 70 56 134 56 36 0 68 5 71 10 7 12 8 12 29
4z m318 -46 c-7 -7 -12 -8 -12 -2 0 14 12 26 19 19 2 -3 -1 -11 -7 -17z m214
-25 c-8 -16 -22 -36 -31 -43 -15 -12 -19 -12 -31 5 -13 17 -10 21 28 46 23 16
44 27 46 25 2 -2 -3 -17 -12 -33z m-486 -3 l0 -30 -93 0 -93 0 -62 -50 c-60
-48 -92 -59 -120 -41 -16 10 0 25 38 35 14 3 45 24 68 46 60 55 82 59 199 35
25 -6 34 -3 45 14 17 27 18 27 18 -9z m-275 -330 c-3 -5 -33 -10 -65 -10 -32
0 -62 5 -65 10 -4 6 20 10 65 10 45 0 69 -4 65 -10z m-130 -30 c9 -14 111 -12
135 2 16 10 23 10 37 -5 16 -16 16 -18 0 -34 -14 -15 -21 -15 -37 -5 -24 14
-126 16 -135 2 -17 -28 -54 3 -41 35 6 17 32 20 41 5z"/>
<path d="M2080 1839 c0 -74 -5 -98 -30 -157 -29 -69 -30 -75 -30 -239 l0 -167
37 -38 c48 -49 34 -63 -15 -15 l-37 37 -95 -35 c-52 -19 -114 -42 -137 -51
-28 -10 -59 -35 -93 -74 l-50 -58 16 -38 c9 -22 18 -41 20 -43 2 -2 26 15 54
39 61 51 287 140 357 140 l43 0 0 89 c0 77 -4 99 -31 162 l-31 73 17 77 c19
81 30 108 40 97 3 -3 -3 -41 -14 -84 l-21 -79 23 -62 c12 -35 24 -63 27 -63
11 0 33 160 37 270 l4 115 -45 95 -46 95 0 -86z m60 -147 c0 -50 -1 -52 -20
-40 -25 16 -44 -1 -58 -52 -9 -31 -10 -32 -11 -9 -1 15 13 59 29 97 17 39 30
79 30 89 1 14 4 13 15 -7 8 -14 14 -49 15 -78z m-5 -187 c-3 -30 -11 -55 -16
-55 -12 0 -11 36 2 83 15 54 23 39 14 -28z m-46 -225 c1 -44 1 -44 -18 -25
-18 18 -27 82 -21 145 3 32 39 -77 39 -120z m-64 -80 c10 -11 16 -22 14 -25
-3 -2 -65 -27 -139 -55 -81 -31 -153 -65 -179 -86 -38 -29 -46 -32 -54 -19 -9
17 13 53 58 95 25 23 230 107 266 109 9 1 24 -8 34 -19z"/>
<path d="M1909 1071 c-109 -41 -189 -82 -189 -97 0 -2 25 7 55 21 30 13 99 33
153 45 78 17 103 27 127 50 l30 30 -25 0 c-14 -1 -82 -22 -151 -49z"/>
<path d="M1905 1015 c-83 -19 -112 -31 -124 -53 -16 -29 25 -52 91 -52 47 0
59 5 105 43 l53 42 -23 17 c-25 20 -23 20 -102 3z m47 -50 c-37 -31 -78 -40
-116 -25 -16 6 -27 13 -24 15 8 8 113 34 141 34 l29 1 -30 -25z"/>
<path d="M1787 504 c-3 -4 -33 -6 -67 -5 -55 1 -100 -13 -100 -31 0 -23 159 2
181 28 11 14 -1 20 -14 8z"/>
<path d="M1077 2112 c-23 -25 -22 -55 3 -77 18 -16 25 -17 54 -7 40 15 93 16
101 2 12 -20 54 -10 72 16 15 24 15 29 2 53 -12 20 -21 25 -45 23 -52 -6 -118
-5 -144 2 -19 6 -30 2 -43 -12z m48 -12 c8 -13 101 -13 126 1 22 12 49 -3 49
-27 0 -21 -36 -36 -52 -21 -19 18 -96 19 -121 2 -24 -17 -47 -4 -47 25 0 25
33 39 45 20z"/>
<path d="M1016 1824 c-22 -21 -20 -57 4 -79 17 -15 24 -16 46 -7 16 8 96 12
230 12 l204 0 110 -55 c89 -45 119 -55 160 -55 27 0 70 -6 96 -12 44 -12 47
-11 65 11 25 31 24 47 -6 77 -20 20 -29 23 -44 14 -11 -5 -49 -10 -86 -10 -59
0 -76 5 -165 50 l-100 50 -224 0 c-139 0 -227 4 -231 10 -9 15 -42 12 -59 -6z
m49 -14 c4 -6 90 -10 226 -10 l219 0 110 -55 c101 -51 115 -55 178 -55 37 0
73 5 78 10 17 17 45 0 42 -24 -3 -22 -48 -37 -48 -17 0 7 -29 11 -76 11 -72 0
-81 3 -183 55 l-108 55 -216 0 c-138 0 -217 -4 -217 -10 0 -15 -48 -12 -53 3
-11 30 32 63 48 37z"/>
<path d="M1005 1480 c-15 -16 -17 -26 -9 -47 14 -39 37 -50 69 -33 17 9 31 11
40 5 7 -6 41 -31 75 -57 l62 -48 156 0 c95 0 168 -5 188 -12 29 -10 36 -9 54
7 25 23 26 59 0 85 -15 15 -25 17 -47 10 -15 -4 -97 -11 -181 -13 l-154 -5
-71 54 c-40 30 -82 54 -94 54 -12 0 -25 5 -28 10 -10 17 -41 11 -60 -10z m50
-10 c3 -5 17 -10 31 -10 15 0 51 -21 93 -55 l68 -55 172 0 c115 0 171 4 171
11 0 21 45 4 48 -19 4 -27 -23 -40 -49 -24 -12 8 -76 12 -185 12 l-165 0 -71
55 c-75 59 -83 62 -112 40 -23 -17 -46 -4 -46 25 0 25 33 39 45 20z"/>
</g>
</svg>
